<svg id="icons" xmlns="http://www.w3.org/2000/svg" viewBox="0 0 65 33.75"><defs><style>.cls-1{fill:#fff;}</style></defs><title>AAA-logo</title><path class="cls-1" d="M36.6,59.1h1.6l-1.6,7.6H35Z" transform="translate(-17.5 -33.15)"/><path class="cls-1" d="M38.9,61.9a2.49,2.49,0,0,0,.1-.8h1.4l-.1.5h0a2.36,2.36,0,0,1,1.6-.7,1.68,1.68,0,0,1,1.8,1.8,4.3,4.3,0,0,1-.2,1.2L43,66.7H41.5l.5-2.6a5,5,0,0,0,.2-1.2.74.74,0,0,0-.8-.8c-1,0-1.4.9-1.6,1.8l-.6,2.8H37.7Z" transform="translate(-17.5 -33.15)"/><path class="cls-1" d="M48.6,62.3a5.27,5.27,0,0,0-1.2-.3c-.4,0-1,.1-1,.6,0,.7,1.9,1,1.9,2.3,0,1.5-1.3,1.9-2.5,1.9a4.67,4.67,0,0,1-1.7-.3l.3-1.2a2.89,2.89,0,0,0,1.4.4c.5,0,1-.2,1-.6,0-.9-1.9-1-1.9-2.4s1.3-1.8,2.4-1.8a8.75,8.75,0,0,1,1.6.2Z" transform="translate(-17.5 -33.15)"/><path class="cls-1" d="M54.3,65.9a2.49,2.49,0,0,0-.1.8H52.8l.1-.5h0a2.36,2.36,0,0,1-1.6.7,1.68,1.68,0,0,1-1.8-1.8,4.3,4.3,0,0,1,.2-1.2l.6-2.7h1.5l-.5,2.6a5,5,0,0,0-.2,1.2.74.74,0,0,0,.8.8c1,0,1.4-.9,1.6-1.8l.6-2.8h1.5Z" transform="translate(-17.5 -33.15)"/><path class="cls-1" d="M56.5,61.8c0-.2.1-.5.1-.8H58l-.2,1.1h0a2.14,2.14,0,0,1,1.7-1.2,1.27,1.27,0,0,1,.6.1l-.3,1.4a1.27,1.27,0,0,0-.6-.1c-1,0-1.5.9-1.7,1.8L57,66.7H55.5Z" transform="translate(-17.5 -33.15)"/><path class="cls-1" d="M63.2,65.8h0a2.23,2.23,0,0,1-1.8,1,1.55,1.55,0,0,1-1.7-1.6c0-1.9,2.1-2,3.4-2h.5v-.5c0-.6-.6-.7-1.1-.7a5.26,5.26,0,0,0-1.8.4l.2-1.2a6.28,6.28,0,0,1,1.9-.3c1.1,0,2.2.4,2.2,1.7,0,.8-.6,3-.7,4H63Zm-1.5,0c1.1,0,1.4-.8,1.7-1.7h-.5c-.7,0-1.9.1-1.9,1.1A.66.66,0,0,0,61.7,65.8Z" transform="translate(-17.5 -33.15)"/><path class="cls-1" d="M66.5,61.9a2.49,2.49,0,0,0,.1-.8H68v.5h0a2.36,2.36,0,0,1,1.6-.7,1.68,1.68,0,0,1,1.8,1.8,4.3,4.3,0,0,1-.2,1.2l-.6,2.7H69.1l.5-2.6a5,5,0,0,0,.2-1.2A.74.74,0,0,0,69,62c-1,0-1.4.9-1.6,1.8l-.6,2.8H65.3Z" transform="translate(-17.5 -33.15)"/><path class="cls-1" d="M76.6,62.4a2,2,0,0,0-1.1-.3,1.93,1.93,0,0,0-1.8,2.1c0,.7.2,1.5,1.2,1.5a2.66,2.66,0,0,0,1.2-.3L76,66.6a3.19,3.19,0,0,1-1.4.3,2.31,2.31,0,0,1-2.4-2.4A3.26,3.26,0,0,1,75.5,61a6.8,6.8,0,0,1,1.5.2Z" transform="translate(-17.5 -33.15)"/><path class="cls-1" d="M78.4,64.3c0,1,.6,1.4,1.6,1.4a4.71,4.71,0,0,0,1.7-.4l-.2,1.2a5.66,5.66,0,0,1-1.8.3c-1.6,0-2.7-.8-2.7-2.5a3.4,3.4,0,0,1,3.2-3.4c1.4,0,2.3.7,2.3,2.1,0,.4-.1.8-.1,1.3Zm2.7-1v-.4a.8.8,0,0,0-.9-.9c-.9,0-1.3.5-1.6,1.3Z" transform="translate(-17.5 -33.15)"/><path class="cls-1" d="M67.6,34.4c-1.5-2.5-8.9-1.2-19,3.5l-.2.1.1.1a17.41,17.41,0,0,1,1.4,1.2l.1.1h.1c7.5-3.2,13-4,14.1-2.1,1.3,2.3-3.9,7.9-12.6,13.8l-.1.1.3.3.1-.1C62.8,44.2,69.2,37.3,67.6,34.4Z" transform="translate(-17.5 -33.15)"/><path class="cls-1" d="M32.5,60.9c-5.6,2-9.6,2.2-10.4.7s.8-4,4.4-7.4l.1-.1-1-.4-.8-.4h-.2c-4.4,4.1-6.3,7.3-5.3,9,1.2,2,6.1,1.6,13.4-1.1l.1-.1-.3-.2Z" transform="translate(-17.5 -33.15)"/><path class="cls-1" d="M35.1,33.8c-9.7,0-17.6,4.9-17.6,10.9s7.9,10.9,17.6,10.9,17.6-4.9,17.6-10.9S44.7,33.8,35.1,33.8ZM32,49h4.2c0,.2,1.4,5,1.5,5.3a24.62,24.62,0,0,1-2.6.2,21.18,21.18,0,0,1-4.4-.5C30.7,53.8,32,49.2,32,49Zm.4-1.5c.1-.3,1.5-5.4,1.7-6.1.2.7,1.6,5.8,1.7,6.1ZM34.1,35c-.1.3-3.2,11.5-3.4,12.2-.2-.7-3.1-10.6-3.1-10.8A19.85,19.85,0,0,1,34.1,35Zm1.6,0a20.39,20.39,0,0,1,6.6,1.3c-.1.2-2.8,10.2-3,10.9C39.1,46.5,35.8,35.3,35.7,35Zm5.2,12.5c.1-.3,1.5-5.4,1.6-6.1.2.7,1.6,5.8,1.7,6.1Zm-.7,2.8c0-.1.3-1.1.3-1.3h4.2a23.35,23.35,0,0,0,.7,2.5,14.36,14.36,0,0,1-4.3,2.1C41.1,53.4,40.2,50.4,40.2,50.3Zm8-1.6c-.1-.5-3-10.3-3.2-10.9,2.8,1.8,4.4,4.4,4.4,7A7.39,7.39,0,0,1,48.2,48.7ZM28.9,53.6a13.85,13.85,0,0,1-5.7-3.3c0-.1.3-1.1.3-1.2h4.2C27.7,49.2,28.8,53.2,28.9,53.6ZM24,47.5c.1-.3,1.5-5.4,1.7-6.1.2.7,1.6,5.8,1.7,6.1Zm.8-9.6c-.2.6-2.8,10.2-2.9,10.7a6.82,6.82,0,0,1-1.2-3.8C20.7,42.2,22.2,39.8,24.8,37.9Z" transform="translate(-17.5 -33.15)"/></svg>