<svg xmlns="http://www.w3.org/2000/svg" viewBox="0 0 40 40.25"><defs><style>.cls-1{fill:#fff;}</style></defs><title>linkedin-logo</title><g id="Layer_2" data-name="Layer 2"><g id="svg3070"><path class="cls-1" d="M37,0H3A2.92,2.92,0,0,0,0,2.88V37.37a2.92,2.92,0,0,0,3,2.88H37a2.92,2.92,0,0,0,3-2.88V2.88A2.92,2.92,0,0,0,37,0ZM12.13,33.7H6.08V15.52h6.05ZM9.1,13h0a3.15,3.15,0,1,1,.07-6.28A3.15,3.15,0,1,1,9.1,13ZM33.91,33.7h-6V24c0-2.44-.88-4.11-3.06-4.11a3.32,3.32,0,0,0-3.1,2.21,4.15,4.15,0,0,0-.2,1.48V33.7h-6s.08-16.47,0-18.18h6v2.57a6,6,0,0,1,5.44-3c4,0,7,2.6,7,8.18Z"/></g></g></svg>