<svg xmlns="http://www.w3.org/2000/svg" viewBox="0 0 50 49.92"><defs><style>.cls-1{fill:#fff;}</style></defs><title>q-code</title><g id="Layer_2" data-name="Layer 2"><g id="Layer_1-2" data-name="Layer 1"><path class="cls-1" d="M41.53,37.16A1,1,0,0,1,41,37a1,1,0,0,1-.26-1.39A18.92,18.92,0,0,0,44,24.92c0-.22,0-.44,0-.66a1,1,0,1,1,2-.07c0,.24,0,.48,0,.73a20.93,20.93,0,0,1-3.63,11.8A1,1,0,0,1,41.53,37.16Z"/><path class="cls-1" d="M40.65,13.48a1,1,0,0,1-.79-.38A18.9,18.9,0,0,0,25,5.92a19.36,19.36,0,0,0-4.74.6A1,1,0,0,1,19,5.8a1,1,0,0,1,.72-1.22A21.44,21.44,0,0,1,25,3.92a20.91,20.91,0,0,1,16.44,7.94,1,1,0,0,1-.16,1.4A1,1,0,0,1,40.65,13.48Z"/><path class="cls-1" d="M6.72,17.8a1,1,0,0,1-.41-.09,1,1,0,0,1-.51-1.32,21.22,21.22,0,0,1,5.8-7.64,1,1,0,1,1,1.28,1.54,19.16,19.16,0,0,0-5.25,6.92A1,1,0,0,1,6.72,17.8Z"/><path class="cls-1" d="M18.6,44.87a1.25,1.25,0,0,1-.32,0,21.2,21.2,0,0,1-8.47-5.4,1,1,0,0,1,0-1.41,1,1,0,0,1,1.42,0,19.15,19.15,0,0,0,7.66,4.88,1,1,0,0,1-.32,1.95Z"/><path class="cls-1" d="M7.85,36.2A1,1,0,0,1,7,35.71,21,21,0,0,1,4,26.11,1,1,0,0,1,5,25.06,1,1,0,0,1,6,26a19,19,0,0,0,2.68,8.68,1,1,0,0,1-.35,1.38A1.06,1.06,0,0,1,7.85,36.2Z"/><path class="cls-1" d="M16.54,39.51a1,1,0,0,1-.52-.15,17,17,0,0,1-6-6.46A1,1,0,1,1,11.75,32a15,15,0,0,0,5.33,5.7A1,1,0,0,1,17.39,39,1,1,0,0,1,16.54,39.51Z"/><path class="cls-1" d="M25,41.92a16.9,16.9,0,0,1-4.95-.73,1,1,0,0,1,.58-1.91,15.26,15.26,0,0,0,7,.42,1,1,0,0,1,.34,2A17.11,17.11,0,0,1,25,41.92Z"/><path class="cls-1" d="M40.86,28.1h-.14A1,1,0,0,1,39.86,27a15.31,15.31,0,0,0,.14-2,15.09,15.09,0,0,0-10.79-14.4,1,1,0,0,1,.56-1.92A17.1,17.1,0,0,1,42,24.92a16.1,16.1,0,0,1-.16,2.31A1,1,0,0,1,40.86,28.1Z"/><path class="cls-1" d="M15.2,13.27a1,1,0,0,1-.61-1.79,16.87,16.87,0,0,1,5.63-2.87,1,1,0,0,1,1.24.68,1,1,0,0,1-.68,1.24,14.83,14.83,0,0,0-5,2.54A1,1,0,0,1,15.2,13.27Z"/><path class="cls-1" d="M22.51,49.8h-.1A24.94,24.94,0,0,1,2.77,36.38a1,1,0,0,1,1.78-.91A22.92,22.92,0,0,0,22.62,47.8a1,1,0,0,1-.11,2Z"/><path class="cls-1" d="M49.71,48.22l-6.34-6.34c.5-.55,1-1.12,1.45-1.72a1,1,0,0,0-1.58-1.22c-.41.53-.84,1-1.29,1.52L37.7,36.21a17.15,17.15,0,0,0,2-2.78,1,1,0,0,0-1.73-1,14.88,14.88,0,0,1-1.71,2.37L25.71,24.22a1,1,0,0,0-1.42,0,1,1,0,0,0,0,1.41L34.87,36.21a15.07,15.07,0,0,1-3.68,2.38,1,1,0,0,0,.42,1.91,1,1,0,0,0,.41-.09,16.9,16.9,0,0,0,4.27-2.79l4.24,4.25A22.79,22.79,0,0,1,29.1,47.56a1,1,0,0,0,.17,2l.18,0A25,25,0,0,0,42,43.29l6.34,6.34a1,1,0,0,0,1.42,0A1,1,0,0,0,49.71,48.22Z"/><path class="cls-1" d="M46.8,36a1.06,1.06,0,0,1-.42-.09,1,1,0,0,1-.48-1.33A23,23,0,0,0,38.47,6.28a1,1,0,0,1,1.17-1.62A25.07,25.07,0,0,1,50,24.92a24.77,24.77,0,0,1-2.29,10.47A1,1,0,0,1,46.8,36Z"/><path class="cls-1" d="M35.21,4.2a.9.9,0,0,1-.42-.1,23.14,23.14,0,0,0-6.91-2,1,1,0,1,1,.24-2,25,25,0,0,1,7.52,2.17,1,1,0,0,1,.48,1.34A1,1,0,0,1,35.21,4.2Z"/><path class="cls-1" d="M7.52,9.48a1,1,0,0,1-.68-.28,1,1,0,0,1,0-1.41A25,25,0,0,1,23,0a1,1,0,0,1,1.07.92A1,1,0,0,1,23.17,2,23,23,0,0,0,8.25,9.16,1,1,0,0,1,7.52,9.48Z"/><path class="cls-1" d="M1.6,20.56l-.22,0a1,1,0,0,1-.75-1.2,24.61,24.61,0,0,1,3.94-8.82A1,1,0,1,1,6.2,11.67a22.62,22.62,0,0,0-3.62,8.11A1,1,0,0,1,1.6,20.56Z"/><path class="cls-1" d="M2,32.91a1,1,0,0,1-.95-.7A24.89,24.89,0,0,1,0,24.92c0-.34,0-.69,0-1a1,1,0,0,1,1-.95,1,1,0,0,1,1,1c0,.31,0,.63,0,1a22.88,22.88,0,0,0,1,6.7,1,1,0,0,1-.67,1.25A.92.92,0,0,1,2,32.91Z"/><path class="cls-1" d="M13.86,30.39a1,1,0,0,1-.93-.62,13,13,0,0,1,1.21-12,1,1,0,1,1,1.67,1.1,11,11,0,0,0-1,10.14,1,1,0,0,1-.56,1.3A1,1,0,0,1,13.86,30.39Z"/><path class="cls-1" d="M28.86,24.86a1,1,0,0,1-1-.73,3,3,0,0,0-1.87-2,1,1,0,1,1,.67-1.88,5,5,0,0,1,3.13,3.38,1,1,0,0,1-.7,1.23Z"/><path class="cls-1" d="M17.18,27.64a1,1,0,0,1-1-.79A8.92,8.92,0,0,1,16,24.92a9,9,0,0,1,9-9,9.52,9.52,0,0,1,2.07.24,1,1,0,0,1-.46,1.95A7.16,7.16,0,0,0,25,17.92a7,7,0,0,0-7,7,6.82,6.82,0,0,0,.16,1.5,1,1,0,0,1-.76,1.19Z"/><path class="cls-1" d="M23.45,33.77a.68.68,0,0,1-.2,0,9,9,0,0,1-5-2.88,1,1,0,0,1,.09-1.41,1,1,0,0,1,1.41.09,7,7,0,0,0,3.9,2.24,1,1,0,0,1-.19,2Z"/><circle class="cls-1" cx="9.07" cy="26.42" r="1"/><circle class="cls-1" cx="9.44" cy="21.21" r="1"/><circle class="cls-1" cx="11.46" cy="16.39" r="1"/><circle class="cls-1" cx="5.46" cy="20.66" r="1"/><circle class="cls-1" cx="17.18" cy="6.51" r="1"/><circle class="cls-1" cx="28.78" cy="44.57" r="1"/><circle class="cls-1" cx="23.45" cy="44.87" r="1"/><circle class="cls-1" cx="25" cy="36.92" r="1"/><circle class="cls-1" cx="22.17" cy="27.75" r="1"/><circle class="cls-1" cx="21" cy="24.86" r="1"/><circle class="cls-1" cx="23.43" cy="21.25" r="1"/><circle class="cls-1" cx="27.49" cy="32.53" r="1"/><circle class="cls-1" cx="32.86" cy="26.43" r="1"/><circle class="cls-1" cx="32.65" cy="22.59" r="1"/><circle class="cls-1" cx="30.66" cy="19.27" r="1"/><circle class="cls-1" cx="29.44" cy="36.07" r="1"/><circle class="cls-1" cx="33.49" cy="16.44" r="1"/><circle class="cls-1" cx="25" cy="12.92" r="1"/><circle class="cls-1" cx="17.73" cy="15.38" r="1"/><circle class="cls-1" cx="16.51" cy="33.41" r="1"/><circle class="cls-1" cx="36.85" cy="26.82" r="1"/><circle class="cls-1" cx="36.43" cy="21.26" r="1"/><circle class="cls-1" cx="44.51" cy="20.5" r="1"/><circle class="cls-1" cx="43.28" cy="16.82" r="1"/></g></g></svg>